Coordinates
version=1
nRows=14
nColumns=33
inDegrees=yes

Units are S.I. units (second, meters, Newtons, ...)
Angles are in degrees.

endheader
time	ground_thorax_rot_x	ground_thorax_rot_y	ground_thorax_rot_z	ground_thorax_tx	ground_thorax_ty	ground_thorax_tz	clav_prot_r	clav_elev_r	scapula_abduction_r	scapula_elevation_r	scapula_upward_rot_r	scapula_winging_r	shoulder_elv_r	plane_of_elev_r	axial_rot_r	elbow_flexion_r	pro_sup_r	wrist_flex_r	wrist_dev_r	clav_prot_l	clav_elev_l	scapula_abduction_l	scapula_elevation_l	scapula_upward_rot_l	scapula_winging_l	shoulder_elv_l	plane_of_elev_l	axial_rot_l	elbow_flexion_l	pro_sup_l	wrist_flex_l	wrist_dev_l	
3.6600	25.011472	29.725558	45.138092	-51.697742	771.771610	7.016054	17.254447	45.000000	45.000000	44.210230	45.000000	-4353.487674	-2234.610011	-90.000000	6.745647	2874.469829	262.791224	11.937433	8.721106	12.977068	-45.000000	-39.627818	45.000000	-44.999987	1172.359665	-4973.872183	19.715679	-28.247016	362.183202	37.734723	11.777007	-19.310441	
3.6700	25.000775	29.687544	45.158819	-52.030188	772.391659	7.239292	17.165290	45.000000	45.000000	44.299381	45.000000	-4353.436897	-2234.567295	-90.000000	6.714572	2874.560064	262.435449	12.145704	8.743828	12.995596	-45.000000	-39.695797	45.000000	-44.999976	1172.419348	-4973.863112	19.825775	-28.123847	362.347665	37.667279	11.547451	-19.465168	
3.6800	24.990635	29.638115	45.145964	-52.473661	773.018152	7.445160	17.069376	45.000000	45.000000	44.372226	45.000000	-4353.369823	-2234.531946	-90.000000	6.690895	2874.659349	262.007434	12.360310	8.775000	13.041205	-45.000000	-39.775571	45.000000	-44.999958	1172.502963	-4973.846319	19.983225	-27.923941	362.533432	37.585933	11.303338	-19.634117	
3.6900	24.989097	29.608661	45.164873	-53.156308	773.651633	7.614160	17.020991	45.000000	45.000000	44.495511	45.000000	-4353.311681	-2234.571956	-90.000000	6.742968	2874.710561	261.435250	12.608717	8.814964	13.036186	-45.000000	-39.819667	45.000000	-44.999924	1172.593086	-4973.805749	20.143095	-27.566744	362.689901	37.503083	11.128858	-19.787876	
3.7000	24.991068	29.580718	45.186044	-54.094722	774.305886	7.745187	16.997464	45.000000	45.000000	44.632900	45.000000	-4353.246191	-2234.674253	-90.000000	6.857708	2874.728445	260.689787	12.884198	8.866733	13.018370	-45.000000	-39.851486	45.000000	-44.999864	1172.704870	-4973.736701	20.330937	-27.040645	362.836504	37.411188	10.999253	-19.938072	
3.7100	25.006699	29.544059	45.183753	-55.321740	774.998321	7.835759	16.991260	45.000000	45.000000	44.766371	45.000000	-4353.147924	-2234.842848	-90.000000	7.039150	2874.717885	259.738073	13.190370	8.935819	12.993500	-45.000000	-39.882087	45.000000	-44.999757	1172.837673	-4973.636922	20.559880	-26.335939	362.972911	37.306694	10.914410	-20.086646	
3.7200	25.038905	29.486416	45.138157	-56.839376	775.752701	7.889368	16.990422	45.000000	45.000000	44.875786	45.000000	-4353.007936	-2235.073350	-90.000000	7.282862	2874.678595	258.566447	13.522596	9.023463	12.973764	-45.000000	-39.920353	45.000000	-44.999564	1172.994094	-4973.502760	20.833857	-25.474083	363.109677	37.184762	10.866851	-20.236495	
3.7300	25.094342	29.398833	45.029373	-58.635594	776.596205	7.912288	16.981089	45.000000	45.000000	44.948181	45.000000	-4352.811022	-2235.363822	-90.000000	7.586857	2874.619236	257.172760	13.873960	9.132566	12.971770	-45.000000	-39.981618	45.000000	-44.999219	1173.168694	-4973.335240	21.150250	-24.499731	363.249410	37.040375	10.844790	-20.390022	
3.7400	25.177449	29.279020	44.855813	-60.698746	777.556148	7.910637	16.962562	45.000000	45.000000	44.986572	45.000000	-4352.560738	-2235.720546	-90.000000	7.957416	2874.532463	255.563060	14.238923	9.262769	12.981871	-45.000000	-40.063730	45.000000	-44.998601	1173.353386	-4973.132236	21.489204	-23.472519	363.396958	36.869085	10.846677	-20.544584	
3.7500	25.295025	29.126101	44.610152	-63.018078	778.657788	7.889214	16.930914	45.000000	45.000000	44.999250	45.000000	-4352.259127	-2236.147641	-90.000000	8.398680	2874.416394	253.748301	14.612984	9.415002	13.005572	-45.000000	-40.171417	45.000000	-44.997494	1173.540794	-4972.897657	21.836714	-22.460071	363.559326	36.663351	10.861959	-20.700623	
3.7600	25.446898	28.940204	44.294554	-65.583977	779.922021	7.851158	16.886379	45.000000	45.000000	45.000000	45.000000	-4351.927802	-2236.646786	-90.000000	8.912388	2874.259560	251.744446	14.990750	9.586132	13.039493	-45.000000	-40.296838	45.000000	-44.995513	1173.730355	-4972.628998	22.177611	-21.529683	363.753991	36.414271	10.879714	-20.858238	
3.7700	25.632966	28.721731	43.915751	-68.388137	781.363684	7.797955	16.829322	45.000000	45.000000	45.000000	45.000000	-4351.574715	-2237.218429	-90.000000	9.499171	2874.067347	249.560443	15.356690	9.771440	13.086160	-45.000000	-40.438371	45.000000	-44.991955	1173.922320	-4972.325948	22.494652	-20.741917	363.989297	36.115776	10.889826	-21.016483	
3.7800	25.856176	28.464725	43.466334	-71.423545	782.990481	7.730204	16.760734	45.000000	45.000000	45.000000	45.000000	-4351.204550	-2237.857959	-90.000000	10.154578	2873.836176	247.210454	15.710305	9.968719	13.136945	-45.000000	-40.593884	45.000000	-44.985611	1174.119076	-4971.986270	22.782633	-20.147485	364.278784	35.760150	10.880185	-21.175369	
3.7900	26.115401	28.167421	42.952919	-74.684054	784.803035	7.647824	16.682960	45.000000	45.000000	45.000000	45.000000	-4350.817963	-2238.545217	-90.000000	10.858607	2873.573385	244.712061	16.044503	10.173140	13.190144	-45.000000	-40.766080	45.000000	-44.974164	1174.327148	-4971.612996	23.029948	-19.783961	364.625319	35.342013	10.842982	-21.333485	
